<?xml version="1.0" encoding="UTF-8" standalone="no"?>
<svg
   id="_レイヤー_1"
   data-name="レイヤー_1"
   viewBox="0 0 512 512"
   version="1.1"
   sodipodi:docname="icon16.svg"
   inkscape:version="1.4.2 (f4327f4, 2025-05-13)"
   inkscape:export-filename="icon16.png"
   inkscape:export-xdpi="3"
   inkscape:export-ydpi="3"
   xmlns:inkscape="http://www.inkscape.org/namespaces/inkscape"
   xmlns:sodipodi="http://sodipodi.sourceforge.net/DTD/sodipodi-0.dtd"
   xmlns="http://www.w3.org/2000/svg"
   xmlns:svg="http://www.w3.org/2000/svg">
  <sodipodi:namedview
     id="namedview15"
     pagecolor="#ffffff"
     bordercolor="#000000"
     borderopacity="0.25"
     inkscape:showpageshadow="2"
     inkscape:pageopacity="0.0"
     inkscape:pagecheckerboard="0"
     inkscape:deskcolor="#d1d1d1"
     inkscape:zoom="1.6621094"
     inkscape:cx="256.90246"
     inkscape:cy="256"
     inkscape:window-width="2560"
     inkscape:window-height="1369"
     inkscape:window-x="-8"
     inkscape:window-y="-8"
     inkscape:window-maximized="1"
     inkscape:current-layer="_レイヤー_1" />
  <def id="defs1">
  </defs>
  <rect
     x="128"
     y="32"
     width="256"
     height="448"
     id="rect2"
     style="fill:#00aaff" />
  <rect
     style="fill:#fff"
     x="224"
     y="64"
     width="128"
     height="32"
     id="rect3" />
  <rect
     style="fill:#fff"
     x="160"
     y="64"
     width="32"
     height="32"
     id="rect4" />
  <rect
     style="fill:#fff"
     x="224"
     y="128"
     width="128"
     height="32"
     id="rect5" />
  <rect
     style="fill:#fff"
     x="160"
     y="128"
     width="32"
     height="32"
     id="rect6" />
  <rect
     style="fill:#fff"
     x="224"
     y="192"
     width="128"
     height="32"
     id="rect7" />
  <rect
     style="fill:#fff"
     x="160"
     y="192"
     width="32"
     height="32"
     id="rect8" />
  <rect
     style="fill:#fff"
     x="224"
     y="256"
     width="128"
     height="32"
     id="rect9" />
  <rect
     style="fill:#fff"
     x="160"
     y="256"
     width="32"
     height="32"
     id="rect10" />
  <rect
     style="fill:#fff"
     x="224"
     y="320"
     width="128"
     height="32"
     id="rect11" />
  <rect
     style="fill:#fff"
     x="160"
     y="320"
     width="32"
     height="32"
     id="rect12" />
  <rect
     style="fill:#fff"
     x="224"
     y="384"
     width="128"
     height="32"
     id="rect13" />
  <rect
     style="fill:#fff"
     x="160"
     y="384"
     width="32"
     height="32"
     id="rect14" />
  <polygon
     points="64 128 64 160 32 160 32 192 64 192 64 224 96 224 96 128 64 128"
     id="polygon14"
     style="fill:#00aaff" />
  <polygon
     points="448 320 448 288 416 288 416 384 448 384 448 352 480 352 480 320 448 320"
     id="polygon15"
     style="fill:#00aaff" />
</svg>
